<svg width="32" height="32" xmlns="http://www.w3.org/2000/svg">

 <g>
  <title>background</title>
  <rect fill="none" id="canvas_background" height="402" width="582" y="-1" x="-1"/>
 </g>
 <g>
  <title>Layer 1</title>
  <path transform="rotate(-180 15.954719543457033,15.977746009826658) " stroke="null" id="svg_2" d="m16.016875,25.891568c-0.745867,0 -1.367424,-0.248622 -1.98898,-0.745867l-11.685257,-11.560946c-0.870179,-0.870179 -1.243112,-1.98898 -1.243112,-3.107781c0,-1.243112 0.497245,-2.237602 1.243112,-3.107781c1.740357,-1.740357 4.475205,-1.740357 6.215562,0l7.210052,7.085741c0.124311,0.124311 0.248622,0.124311 0.372934,0l7.210052,-7.085741c1.740357,-1.740357 4.475205,-1.740357 6.215562,0c0.870179,0.870179 1.243112,1.98898 1.243112,3.107781c0,1.243112 -0.497245,2.237602 -1.243112,3.107781l-11.685257,11.560946c-0.497245,0.497245 -1.118801,0.745867 -1.864669,0.745867z"/>
 </g>
</svg>